<svg width="100" height="100" viewBox="0 0 100 100" fill="none" xmlns="http://www.w3.org/2000/svg">
<rect width="100" height="100" rx="10" fill="url(#paint0_linear)"/>
<path d="M24.1973 43V21.5254H28.5332V29.9775H37.0293V21.5254H41.3652V43H37.0293V33.6104H28.5332V43H24.1973ZM65.002 43V33.9619L57.1357 21.5254H62.2188L67.2725 30.0215L72.2236 21.5254H77.2188L69.3232 33.9912V43H65.002Z" fill="white"/>
<path d="M24.1826 79V57.5254H31.1406C33.7773 57.5254 35.4961 57.6328 36.2969 57.8477C37.5273 58.1699 38.5576 58.873 39.3877 59.957C40.2178 61.0312 40.6328 62.4229 40.6328 64.1318C40.6328 65.4502 40.3936 66.5586 39.915 67.457C39.4365 68.3555 38.8262 69.0635 38.084 69.5811C37.3516 70.0889 36.6045 70.4258 35.8428 70.5918C34.8076 70.7969 33.3086 70.8994 31.3457 70.8994H28.5186V79H24.1826ZM28.5186 61.1582V67.252H30.8916C32.6006 67.252 33.7432 67.1396 34.3193 66.915C34.8955 66.6904 35.3447 66.3389 35.667 65.8604C35.999 65.3818 36.165 64.8252 36.165 64.1904C36.165 63.4092 35.9355 62.7646 35.4766 62.2568C35.0176 61.749 34.4365 61.4316 33.7334 61.3047C33.2158 61.207 32.1758 61.1582 30.6133 61.1582H28.5186Z" fill="white"/>
<line x1="60.25" y1="58.75" x2="73.75" y2="58.75" stroke="white" stroke-width="4.5" stroke-linecap="square"/>
<line x1="60.25" y1="67.75" x2="73.75" y2="67.75" stroke="white" stroke-width="4.5" stroke-linecap="square"/>
<line x1="60.25" y1="76.75" x2="73.75" y2="76.75" stroke="white" stroke-width="4.5" stroke-linecap="square"/>
<defs>
<linearGradient id="paint0_linear" x1="0" y1="0" x2="132" y2="112.5" gradientUnits="userSpaceOnUse">
<stop stop-color="#2A74F2"/>
<stop offset="1" stop-color="#ED88FF"/>
</linearGradient>
</defs>
</svg>
